<?xml version="1.0" standalone="no"?><!DOCTYPE svg PUBLIC "-//W3C//DTD SVG 1.1//EN" "http://www.w3.org/Graphics/SVG/1.1/DTD/svg11.dtd"><svg t="1673611859414" class="icon" viewBox="0 0 1024 1024" version="1.1" xmlns="http://www.w3.org/2000/svg" p-id="36185" xmlns:xlink="http://www.w3.org/1999/xlink" width="200" height="200"><path d="M608 106.666667A74.666667 74.666667 0 0 1 682.666667 181.333333v185.109334h64a106.666667 106.666667 0 0 1 106.56 102.058666l0.106666 4.608V698.666667a37.333333 37.333333 0 0 0 74.538667 3.072l0.128-3.072V313.621333a42.666667 42.666667 0 0 0-15.552-32.938666l-2.773333-2.090667-86.784-60.309333a32 32 0 0 1 33.898666-54.186667l2.602667 1.621333 86.805333 60.309334a106.666667 106.666667 0 0 1 45.674667 82.368l0.128 5.226666V698.666667a101.333333 101.333333 0 0 1-202.56 4.629333L789.333333 698.666667V473.109333a42.666667 42.666667 0 0 0-39.466666-42.538666l-3.2-0.128h-64V853.333333h64a32 32 0 0 1 31.850666 28.928l0.149334 3.072a32 32 0 0 1-28.928 31.850667L746.666667 917.333333H64a32 32 0 0 1-3.072-63.850666L64 853.333333h64V181.333333A74.666667 74.666667 0 0 1 202.666667 106.666667h405.333333z m0 64h-405.333333a10.666667 10.666667 0 0 0-10.666667 10.666666V853.333333h426.666667V181.333333a10.666667 10.666667 0 0 0-10.666667-10.666666zM320 544c-26.154667 0-40.874667-29.44-26.325333-50.218667l1.749333-2.261333 106.666667-128a32 32 0 0 1 51.136 38.336l-1.984 2.624-62.933334 75.52h102.293334c27.136 0 41.962667 31.637333 24.597333 52.48l-106.666667 128a32 32 0 0 1-49.173333-40.96l62.933333-75.52H320z" fill="#515151" p-id="36186"></path></svg>