<?xml version="1.0" standalone="no"?><!DOCTYPE svg PUBLIC "-//W3C//DTD SVG 1.1//EN" "http://www.w3.org/Graphics/SVG/1.1/DTD/svg11.dtd"><svg t="1673808360262" class="icon" viewBox="0 0 1024 1024" version="1.1" xmlns="http://www.w3.org/2000/svg" p-id="5236" xmlns:xlink="http://www.w3.org/1999/xlink" width="200" height="200"><path d="M415.295518 525.19758c-9.887184 0-17.908882-8.187473-17.908882-18.318204 0-10.123568 8.022721-18.336624 17.908882-18.336624h113.436562v-22.093181a17.663288 17.663288 0 0 1-1.893117-4.782933L421.635923 349.416088c-6.995321-7.15905-6.995321-18.755156 0-25.914206 6.994298-7.160073 18.343787-7.160073 25.326828 0l99.683327 107.364263 99.666954-107.364263a17.629519 17.629519 0 0 1 25.338085 0c6.984065 7.15905 6.984065 18.755156 0 25.914206L566.450123 461.657428a18.092054 18.092054 0 0 1-1.893117 4.79419v22.090111h113.435539c9.888208 0 17.911952 8.212032 17.911952 18.33867 0 10.130731-8.024767 18.316158-17.911952 18.316158H564.55496v42.11212h113.435538c9.889231 0 17.909905 8.202822 17.909906 18.319227 0 10.141988-8.021697 18.327414-17.909906 18.327414H564.55496V682.06735c0 10.137895-8.022721 18.323321-17.911952 18.323321-9.887184 0-17.907858-8.185426-17.907858-18.323321v-78.114078H415.295518c-9.887184 0-17.908882-8.18338-17.908882-18.325368 0-10.118452 8.022721-18.319228 17.908882-18.319227H528.736173v-42.11212H415.295518z m512.710174 146.661268c-21.094434 50.034557-51.314713 94.932116-89.782839 133.530202-38.483476 38.578644-83.307358 68.845994-133.224234 89.985454-51.688219 21.914102-106.570177 33.044604-163.146731 33.044604-56.5786 0-111.459534-11.130502-163.126264-33.044604-37.617759-15.923668-72.309886-37.034475-103.600543-62.966077h62.36335c59.175751 37.622876 129.246643 59.513442 204.362434 59.513442 211.015971 0 382.685819-172.059728 382.685819-383.553583 0-211.496925-171.669848-383.577119-382.685819-383.577118-210.994482 0-382.686842 172.080194-382.686842 383.576095H122.749672c0.001023-56.706513 11.106965-111.713314 32.946366-163.519214 21.11797-50.03251 51.315736-94.932116 89.778746-133.531226 38.489616-38.548968 83.309404-68.839855 133.251863-89.98136 51.66673-21.911032 106.546641-33.022091 163.126265-33.022091 56.576553 0 111.459534 11.111059 163.14673 33.022091 49.916876 21.142529 94.716198 51.432393 133.224234 89.98136 38.468127 38.58069 68.688405 83.499739 89.782839 133.531226 21.841447 51.8059 32.94739 106.813724 32.94739 163.520237s-11.106965 111.711268-32.948413 163.490562zM231.150544 562.409087c-6.275937-6.641257-6.106068-17.217127 0.400113-23.620977 6.491855-6.417153 16.848737-6.226818 23.116487 0.407276l90.372263 95.580892c0.675382 0.713244 0.992607 1.608637 1.517563 2.404769 0.632403 0.949628 1.384533 1.798972 1.817392 2.877537 0.810459 2.026146 1.248434 4.167926 1.248434 6.327103 0 2.152013-0.437975 4.290723-1.247411 6.314822-0.454348 1.12973-1.234107 2.030239-1.908466 3.021823-0.506537 0.750083-0.799202 1.599428-1.437745 2.275833l-90.36203 95.587032c-6.275937 6.628978-16.624632 6.815219-23.116487 0.409323-6.499018-6.417153-6.667863-16.987906-0.400113-23.620977l63.60155-67.282383H79.393211c-9.023514 0-16.346293-7.483438-16.346293-16.70445 0-9.227152 7.323802-16.705474 16.346293-16.705474h215.356836l-63.599503-67.272149z" fill="#515151" p-id="5237"></path></svg>