<?xml version="1.0" standalone="no"?><!DOCTYPE svg PUBLIC "-//W3C//DTD SVG 1.1//EN" "http://www.w3.org/Graphics/SVG/1.1/DTD/svg11.dtd"><svg t="1673611772607" class="icon" viewBox="0 0 1024 1024" version="1.1" xmlns="http://www.w3.org/2000/svg" p-id="34311" xmlns:xlink="http://www.w3.org/1999/xlink" width="200" height="200"><path d="M568.040727 623.336727c-23.598545-23.598545-64.744727-23.505455-88.157091 0l-23.738181 23.738182-73.448728-73.448727 39.982546-39.936c24.203636-24.203636 24.250182-63.674182 0-88.110546L267.543273 290.490182a34.909091 34.909091 0 1 0-49.384728 49.384727l149.829819 149.783273-110.592 110.592-149.783273-149.829818a34.909091 34.909091 0 1 0-49.384727 49.384727l155.089454 155.089454c12.148364 12.194909 28.113455 18.245818 44.078546 18.245819s31.930182-6.050909 44.078545-18.245819l31.837091-31.883636 73.448727 73.448727-41.518545 41.518546a61.998545 61.998545 0 0 0-0.046546 88.157091l140.520728 140.520727c11.729455 11.822545 27.415273 18.338909 44.078545 18.338909s32.302545-6.516364 44.032-18.292364l114.688-114.688c11.822545-11.776 18.338909-27.415273 18.338909-44.078545s-6.516364-32.302545-18.292363-44.032l-140.520728-140.567273z m-18.199272 288.674909l-129.95491-129.954909 104.075637-104.029091 129.954909 129.908364-104.075636 104.075636z m418.862545-369.524363L813.614545 387.397818a62.464 62.464 0 0 0-88.110545 0l-31.883636 31.883637-73.402182-73.402182 41.611636-41.611637c24.203636-24.296727 24.203636-63.813818-0.046545-88.157091l-140.613818-140.567272c-23.505455-23.552-64.512-23.552-88.157091 0L318.324364 190.370909a62.370909 62.370909 0 0 0 0.046545 88.064l140.567273 140.660364c11.729455 11.682909 27.368727 18.152727 43.985454 18.152727 16.570182 0 32.209455-6.423273 44.078546-18.199273l23.831273-23.831272 73.402181 73.402181-39.936 39.936a61.905455 61.905455 0 0 0-18.292363 44.125091c0 16.663273 6.562909 32.302545 18.292363 43.985455l155.089455 155.089454a34.816 34.816 0 0 0 49.338182 0 34.909091 34.909091 0 0 0 0-49.384727l-149.783273-149.783273 110.545455-110.592 149.783272 149.783273a34.909091 34.909091 0 0 0 49.431273-49.291636zM373.015273 234.402909l104.075636-104.122182 130.001455 129.954909-104.168728 104.168728-129.908363-130.001455z" fill="#515151" p-id="34312"></path></svg>